<svg xmlns="http://www.w3.org/2000/svg" width="52" height="40" fill="none" viewBox="0 0 52 40"><g clip-path="url(#clip0_158_2772)"><path fill="#8E8C95" stroke="#000" d="M15.9568 27.229C19.3198 27.2291 22.0476 29.9711 22.0476 33.3647C22.0475 36.7593 19.3188 39.5101 15.9568 39.5103C12.5937 39.5103 9.85534 36.7584 9.85522 33.3647C9.85522 29.972 12.5927 27.229 15.9568 27.229Z"/><path stroke="#000" d="M15.3123 29.5195C16.8092 29.5196 18.0251 30.7466 18.0251 32.2539C18.0251 33.7699 16.8102 34.9882 15.3123 34.9883C13.8143 34.9883 12.5995 33.77 12.5994 32.2539C12.5994 30.7378 13.8143 29.5195 15.3123 29.5195Z"/><path stroke="#000" d="M20.386 1.95068C21.9801 1.24983 23.6124 0.259993 26.1301 0.554199V0.555176C27.085 0.671703 29.217 1.02256 31.8245 1.43701L31.8479 1.44092C31.8758 1.44405 31.9063 1.44881 31.9524 1.45654C31.9924 1.46326 32.0473 1.47138 32.1047 1.47803V1.479C32.1751 1.48786 32.2372 1.49689 32.303 1.50635H32.304C36.8565 2.2212 42.6444 3.06325 45.8967 3.06494V3.06592H51.4905V17.1987C50.8108 18.8482 49.5991 20.3847 48.3167 21.6567C47.0158 22.947 45.6711 23.9389 44.8118 24.4761C44.4163 24.7232 43.7093 25.0286 42.7922 25.3599C41.8862 25.6872 40.8092 26.0282 39.6965 26.3521C37.7473 26.9194 35.7086 27.4288 34.3176 27.7192L33.7639 27.8296C33.0178 27.9679 31.5303 28.491 29.7708 29.1675C27.9903 29.852 25.879 30.7149 23.8577 31.561C21.8357 32.4075 19.9004 33.2384 18.4709 33.8569C17.7564 34.1661 17.1679 34.4219 16.7581 34.6011C16.6851 34.633 16.6172 34.6621 16.5559 34.689L14.1663 29.7837L18.1643 27.4146L19.1965 26.8032L19.1809 26.7993C23.1142 24.4788 28.0528 21.5551 29.0774 20.8979L29.0784 20.897C29.949 20.3357 30.6369 19.7591 30.8713 18.9858C31.0836 18.2853 30.8898 17.555 30.4368 16.7417L30.2278 16.3872C29.6708 15.489 29.1163 14.5021 28.5403 13.7651C27.9715 13.0374 27.2596 12.3873 26.3274 12.3872C26.0602 12.3872 25.7535 12.478 25.4592 12.5913C25.1516 12.7097 24.8023 12.8753 24.4329 13.0698C23.6931 13.4593 22.8359 13.9825 22.0012 14.5229C20.7499 15.3331 19.5261 16.1968 18.7864 16.7407L18.2249 17.1646C17.7061 17.5688 17.292 18.0378 17.0266 18.6099C16.7933 19.1128 16.6866 19.6706 16.7034 20.2944L16.718 20.5659C16.7883 21.4663 17.1275 24.4611 17.3459 26.3521C15.7736 26.0787 14.2219 26.2745 12.842 26.9478C12.7906 26.6981 12.7264 26.3867 12.6545 26.0288C12.4627 25.0735 12.2122 23.7892 11.9788 22.4731C11.745 21.1555 11.5291 19.813 11.4045 18.7378C11.3421 18.1991 11.3037 17.7375 11.2961 17.3843C11.2924 17.2075 11.2964 17.0674 11.3069 16.9634C11.3185 16.8479 11.3344 16.8194 11.3264 16.8354C11.5577 16.3699 12.0565 15.6538 12.5334 15.0132C13.0033 14.3822 13.4213 13.8647 13.468 13.8091L12.8362 13.0542C12.7567 13.1 12.1656 13.4552 11.5491 13.8735C11.2405 14.0829 10.9174 14.313 10.6467 14.5317C10.4273 14.7091 10.1932 14.9165 10.0461 15.1216L9.98853 15.2095C9.90967 15.341 9.84591 15.5195 9.79321 15.6909C9.73545 15.8789 9.67727 16.1078 9.61841 16.3628C9.50049 16.8736 9.37776 17.5125 9.26392 18.189C9.0651 19.3703 8.88824 20.6902 8.80688 21.6704L8.77759 22.0688C8.71737 22.9916 8.46284 24.052 8.01587 24.8745C7.56434 25.7052 6.98016 26.1905 6.28735 26.2192C5.35961 26.2577 5.15763 26.0842 5.06177 25.9146C4.98969 25.7869 4.93275 25.5797 4.90063 25.229C4.86891 24.8825 4.86548 24.4505 4.86548 23.8979C4.86548 22.811 4.91574 20.887 4.96704 19.228C4.99265 18.4 5.01912 17.6401 5.03833 17.0874C5.04793 16.8111 5.05519 16.5866 5.06079 16.4312C5.06359 16.3534 5.06613 16.2925 5.06763 16.2515C5.06836 16.2314 5.0692 16.216 5.06958 16.2056V16.1899L5.10962 15.104L4.25903 15.7798C3.55479 16.3387 2.84989 16.6293 2.21899 16.6724C1.67774 16.7092 1.16826 16.5659 0.718994 16.2163L0.529541 16.0542C0.519829 16.0449 0.46812 15.9889 0.517822 15.7534C0.569575 15.5087 0.711327 15.1846 0.933838 14.7964C1.37739 14.0227 2.04575 13.1514 2.6106 12.3765C3.21567 11.5463 3.93474 10.5771 4.74341 9.68994C5.55475 8.79986 6.43377 8.01753 7.34985 7.54053H7.35083C8.31325 7.03693 11.1703 5.81632 14.01 4.62451C16.8291 3.44136 19.6144 2.29345 20.387 1.95166L20.386 1.95068Z"/><path stroke="#000" d="M22.0974 1.17822C23.2192 0.707702 24.4965 0.351755 26.1404 0.544434V0.54541C26.2998 0.564872 26.4918 0.592768 26.7136 0.624512C26.6458 0.652531 26.579 0.681517 26.5134 0.712402C25.919 0.992535 25.4393 1.37711 24.9636 1.82178C24.7268 2.04318 24.4843 2.28633 24.2302 2.53955C23.9744 2.79451 23.7025 3.06428 23.3972 3.35107L12.7937 13.0747C12.6193 13.1788 12.0984 13.4973 11.5583 13.8638C11.2499 14.0731 10.9275 14.3033 10.657 14.522C10.4375 14.6993 10.2034 14.9067 10.0564 15.1118L9.99878 15.1997C9.91997 15.3312 9.85614 15.5098 9.80347 15.6812C9.74576 15.869 9.68649 16.0973 9.62769 16.3521C9.50974 16.8629 9.38803 17.5026 9.27417 18.1792C9.04696 19.5293 8.84797 21.0599 8.78784 22.0581V22.0591C8.73256 22.9812 8.48078 24.0413 8.03394 24.8638C7.61125 25.6416 7.06925 26.1184 6.42749 26.1987L6.29761 26.2095C5.37126 26.2479 5.16851 26.0723 5.07202 25.9009C4.99961 25.7722 4.94201 25.5646 4.90991 25.2144C4.87821 24.8683 4.87476 24.4373 4.87476 23.8872C4.87477 22.805 4.92599 20.8813 4.97729 19.2212C5.0029 18.3926 5.0284 17.632 5.04761 17.0786C5.05721 16.8019 5.06544 16.5771 5.07104 16.4214C5.07385 16.3435 5.07638 16.2828 5.07788 16.2417C5.07863 16.2213 5.07847 16.2053 5.07886 16.1948C5.07904 16.1897 5.07974 16.1857 5.07983 16.1831V16.1792L5.11987 15.1001L4.27124 15.7681C3.56674 16.3227 2.85876 16.6144 2.22534 16.6587C1.60434 16.702 1.02812 16.5106 0.541748 16.0454L0.540771 16.0444C0.533251 16.0374 0.47614 15.9854 0.5271 15.7417C0.578247 15.4971 0.719345 15.1736 0.941162 14.7856C1.38297 14.013 2.05145 13.1407 2.61987 12.3677L2.62085 12.3657C3.22557 11.536 3.94403 10.5701 4.75269 9.68408C5.56374 8.79546 6.44294 8.01215 7.36011 7.52979L7.36108 7.53076C8.32363 7.02711 11.178 5.80553 14.0164 4.61377C16.8348 3.43035 19.62 2.28317 20.3962 1.94189L20.3992 1.94092C20.947 1.6958 21.4869 1.43205 22.0955 1.1792L22.0974 1.17822Z"/><path stroke="#000" d="M17.2642 3.26709C16.1318 4.08673 14.9056 4.99258 13.6948 5.89111C10.4128 8.32679 7.22916 10.7312 6.19189 11.4165C5.11785 12.1173 4.52147 12.6852 4.25732 13.4673C4.13019 13.8439 4.09007 14.2401 4.07764 14.6685C4.0673 15.0248 4.07483 15.4482 4.07764 15.9194C3.43694 16.3807 2.8012 16.6282 2.2251 16.6685C1.60409 16.7117 1.02788 16.5204 0.541504 16.0552H0.540527C0.534206 16.0491 0.475249 15.9983 0.526855 15.7515C0.578006 15.5069 0.719107 15.1834 0.940918 14.7954C1.38273 14.0227 2.05121 13.1504 2.61963 12.3774L2.62061 12.3755C3.22533 11.5458 3.94379 10.5798 4.75244 9.69385C5.5635 8.80523 6.4427 8.02191 7.35986 7.53955L7.36084 7.54053C8.32339 7.03687 11.1778 5.81529 14.0161 4.62354C15.1466 4.14887 16.272 3.6805 17.2642 3.26709Z"/><path stroke="#000" d="M17.5967 29.5308C18.233 29.5594 18.655 29.7725 18.832 30.1118V30.1128C19.0832 30.602 19.1015 30.9536 18.9375 31.2974C18.7501 31.69 18.2854 32.1598 17.333 32.7524C16.3675 33.3532 15.7541 33.5564 15.3359 33.5161C15.0258 33.4862 14.7232 33.3065 14.3994 32.7642L14.2822 32.5356C13.9289 31.85 13.9762 31.4519 14.1738 31.1343C14.4142 30.7483 14.9401 30.3686 15.8252 29.9058C16.2891 29.666 16.9734 29.5027 17.5967 29.5308Z"/><mask id="path-7-inside-1_158_2772" fill="#fff"><path d="M24.7354 2.81137C23.9444 3.90255 23.046 4.86593 22.1183 5.79982C21.2004 6.74354 20.1457 7.54964 19.1497 8.40489L16.1517 10.9706L13.1245 13.5069C13.105 13.5265 13.0757 13.5265 13.0562 13.5069C13.0366 13.4872 13.0366 13.4577 13.0562 13.4479L15.8295 10.6364L18.6321 7.85438C19.5696 6.93032 20.4582 5.94728 21.4738 5.11169C22.4796 4.26628 23.5147 3.45035 24.667 2.75239C24.6866 2.74256 24.7159 2.75239 24.7354 2.77205C24.7452 2.79171 24.7452 2.81137 24.7354 2.8212V2.81137Z"/></mask><path fill="#000" d="M24.7354 2.81137H25.7354V-0.271979L23.9257 2.22446L24.7354 2.81137ZM22.1183 5.79982L21.4088 5.09503L21.4015 5.10258L22.1183 5.79982ZM19.1497 8.40489L19.7999 9.16463L19.8011 9.16358L19.1497 8.40489ZM16.1517 10.9706L16.794 11.7372L16.802 11.7304L16.1517 10.9706ZM13.1245 13.5069L12.4823 12.7403L12.4473 12.7697L12.4151 12.8021L13.1245 13.5069ZM13.0562 13.4479L13.5057 14.3411L13.6526 14.2672L13.7681 14.1502L13.0562 13.4479ZM15.8295 10.6364L15.125 9.92664L15.1176 9.93414L15.8295 10.6364ZM18.6321 7.85438L17.9301 7.1422L17.9276 7.14467L18.6321 7.85438ZM21.4738 5.11169L22.1092 5.88396L22.1172 5.8772L21.4738 5.11169ZM24.667 2.75239L24.2174 1.85916L24.1825 1.87677L24.149 1.89706L24.667 2.75239ZM24.7354 2.77205L25.631 2.32722L25.559 2.18219L25.4449 2.0673L24.7354 2.77205ZM24.7354 2.8212H23.7354V5.24682L25.4449 3.52596L24.7354 2.8212ZM24.7354 2.81137L23.9257 2.22446C23.1801 3.2531 22.3243 4.17353 21.4089 5.09507L22.1183 5.79982L22.8278 6.50458C23.7677 5.55834 24.7087 4.552 25.5451 3.39828L24.7354 2.81137ZM22.1183 5.79982L21.4015 5.10258C20.5249 6.00379 19.5528 6.74072 18.4982 7.64619L19.1497 8.40489L19.8011 9.16358C20.7387 8.35856 21.8759 7.4833 22.8351 6.49707L22.1183 5.79982ZM19.1497 8.40489L18.4995 7.64514L15.5015 10.2109L16.1517 10.9706L16.802 11.7304L19.7999 9.16463L19.1497 8.40489ZM16.1517 10.9706L15.5095 10.2041L12.4823 12.7403L13.1245 13.5069L13.7667 14.2734L16.7939 11.7372L16.1517 10.9706ZM13.1245 13.5069L12.4151 12.8021C12.7866 12.4281 13.3941 12.4281 13.7656 12.8021L13.0562 13.5069L12.3467 14.2116C12.7573 14.625 13.4234 14.625 13.834 14.2116L13.1245 13.5069ZM13.0562 13.5069L13.7656 12.8021C13.9267 12.9643 14.0415 13.1999 14.0415 13.4737C14.0415 13.7575 13.9017 14.1418 13.5057 14.3411L13.0562 13.4479L12.6066 12.5547C12.1911 12.7638 12.0415 13.1678 12.0415 13.4737C12.0415 13.7696 12.166 14.0298 12.3467 14.2116L13.0562 13.5069ZM13.0562 13.4479L13.7681 14.1502L16.5414 11.3387L15.8295 10.6364L15.1176 9.93414L12.3442 12.7456L13.0562 13.4479ZM15.8295 10.6364L16.534 11.3461L19.3366 8.5641L18.6321 7.85438L17.9276 7.14467L15.125 9.92668L15.8295 10.6364ZM18.6321 7.85438L19.3341 8.56656C20.3272 7.5877 21.1393 6.68188 22.1092 5.88391L21.4738 5.11169L20.8385 4.33947C19.7771 5.21268 18.812 6.27294 17.9301 7.1422L18.6321 7.85438ZM21.4738 5.11169L22.1172 5.8772C23.1098 5.04294 24.0987 4.26578 25.1851 3.60772L24.667 2.75239L24.149 1.89706C22.9308 2.63492 21.8495 3.48961 20.8304 4.34619L21.4738 5.11169ZM24.667 2.75239L25.1166 3.64562C24.8263 3.79174 24.5566 3.7521 24.4121 3.70846C24.2573 3.66171 24.1271 3.57859 24.0259 3.4768L24.7354 2.77205L25.4449 2.0673C25.3242 1.94585 25.1695 1.84799 24.9903 1.79387C24.8214 1.74286 24.5273 1.70321 24.2174 1.85916L24.667 2.75239ZM24.7354 2.77205L23.8398 3.21689C23.789 3.11466 23.7427 2.97285 23.7427 2.80031C23.7427 2.63492 23.7896 2.35433 24.0259 2.11645L24.7354 2.8212L25.4449 3.52596C25.6909 3.27825 25.7427 2.98291 25.7427 2.80031C25.7427 2.61058 25.6916 2.4491 25.631 2.32722L24.7354 2.77205ZM24.7354 2.8212H25.7354V2.81137H24.7354H23.7354V2.8212H24.7354Z" mask="url(#path-7-inside-1_158_2772)"/></g><defs><clipPath id="clip0_158_2772"><rect width="52" height="40" fill="#fff"/></clipPath></defs></svg>