<svg xmlns="http://www.w3.org/2000/svg" width="660" height="660" fill="none" viewBox="0 0 660 660"><path fill="#E7EDE6" d="M394.357 177.958C310.648 142.305 213.609 181.369 178.265 265.387C142.612 349.095 181.676 446.135 265.694 481.478C349.402 517.132 446.442 478.068 481.785 394.05C517.439 310.341 478.375 213.302 394.357 177.958ZM297.937 405.831C256.083 388.159 236.551 339.484 254.223 297.63C271.895 255.776 320.569 236.244 362.424 253.916C404.278 271.587 423.81 320.262 406.138 362.116C388.466 403.971 339.791 423.503 297.937 405.831Z"/><path fill="#E7EDE6" d="M458.841 26.348C291.114 -44.9591 97.6551 33.4787 26.348 201.205C-44.9591 368.932 33.4787 562.391 201.205 633.698C295.455 673.692 398.075 666.562 482.713 622.537C466.282 572.932 459.151 551.85 456.051 542.859C419.157 564.872 376.063 577.583 330.178 577.583C193.455 577.583 82.7736 466.902 82.7736 330.178C82.7736 193.455 193.455 82.7736 330.178 82.7736C466.902 82.7736 577.583 193.455 577.583 330.178C577.583 362.111 571.382 392.494 560.221 420.707L638.659 446.75C700.975 282.123 622.537 96.105 459.151 26.6581L458.841 26.348Z"/><path fill="#E7EDE6" d="M547.202 569.212C577.509 569.212 602.078 544.644 602.078 514.337C602.078 484.03 577.509 459.461 547.202 459.461C516.895 459.461 492.327 484.03 492.327 514.337C492.327 544.644 516.895 569.212 547.202 569.212Z"/></svg>