<svg width="36" height="36" viewBox="0 0 36 36" fill="none" xmlns="http://www.w3.org/2000/svg">
<path d="M21.5105 9.70653C16.9446 7.7618 11.6515 9.89255 9.72361 14.4754C7.77886 19.0413 9.90963 24.3344 14.4925 26.2622C19.0584 28.2069 24.3515 26.0762 26.2793 21.4933C28.2241 16.9274 26.0933 11.6344 21.5105 9.70653ZM16.2512 22.136C13.9682 21.172 12.9029 18.517 13.8668 16.2341C14.8307 13.9511 17.4857 12.8858 19.7687 13.8497C22.0516 14.8136 23.117 17.4686 22.1531 19.7515C21.1892 22.0345 18.5342 23.0999 16.2512 22.136Z" fill="#104901"/>
<path d="M25.0278 1.43717C15.8791 -2.45231 5.32667 1.82611 1.43717 10.9748C-2.45233 20.1236 1.82612 30.6759 10.9749 34.5654C16.1158 36.7469 21.7133 36.3579 26.33 33.9566C25.4337 31.2509 25.0447 30.1009 24.8756 29.6105C22.8632 30.8112 20.5126 31.5045 18.0098 31.5045C10.5521 31.5045 4.51495 25.4674 4.51495 18.0097C4.51495 10.5521 10.5521 4.51493 18.0098 4.51493C25.4675 4.51493 31.5047 10.5521 31.5047 18.0097C31.5047 19.7515 31.1665 21.4088 30.5577 22.9477L34.8361 24.3682C38.2352 15.3886 33.9568 5.24209 25.0447 1.45408L25.0278 1.43717Z" fill="#104901"/>
<path d="M29.8475 31.0478C31.5007 31.0478 32.8408 29.7077 32.8408 28.0546C32.8408 26.4015 31.5007 25.0614 29.8475 25.0614C28.1944 25.0614 26.8543 26.4015 26.8543 28.0546C26.8543 29.7077 28.1944 31.0478 29.8475 31.0478Z" fill="#104901"/>
</svg>
