<svg xmlns="http://www.w3.org/2000/svg" width="42" height="42" fill="none" viewBox="0 0 42 42"><path stroke="#000" d="M6.49198 14.4555C6.42398 14.4555 6.35174 14.4555 6.27949 14.4463C5.56553 14.3767 4.92807 13.9592 4.37561 13.2032C3.79764 12.41 3.6489 11.3849 3.79339 10.4712C2.91369 10.4387 1.92775 10.1001 1.04805 9.24199C0.988558 9.18633 0.984309 9.08893 1.03531 9.02863C1.0863 8.96369 1.17555 8.95905 1.23079 9.01471C2.07224 9.83571 3.01569 10.1465 3.85289 10.1697C3.97188 9.678 4.17587 9.23272 4.44785 8.89411C4.91107 8.31895 5.48904 8.17053 5.99476 8.49521C6.32624 8.71322 6.37724 8.97297 6.36449 9.14923C6.33474 9.53421 5.96926 9.9192 5.37855 10.1789C5.01307 10.3367 4.56259 10.448 4.07387 10.4665C3.92513 11.2782 4.02288 12.2291 4.59234 13.0084C5.09806 13.6995 5.67178 14.0798 6.30499 14.1401C7.28668 14.2561 8.11538 13.5511 8.42986 13.2542C8.48511 13.1939 8.57435 13.2032 8.62535 13.2681C8.67635 13.3284 8.6721 13.4258 8.6126 13.4815C8.29812 13.783 7.48642 14.4509 6.49623 14.4509L6.49198 14.4555ZM5.44229 8.62509C5.07681 8.62509 4.78358 8.92658 4.65184 9.08893C4.43935 9.35331 4.25661 9.72902 4.14187 10.1604C4.56684 10.1326 4.95357 10.0352 5.2723 9.89601C5.74827 9.68728 6.067 9.38578 6.084 9.12603C6.09675 8.98688 6.01601 8.86165 5.84602 8.75032C5.70578 8.65756 5.56978 8.62045 5.43804 8.62045L5.44229 8.62509Z"/><path fill="#C0BFC4" stroke="#000" d="M27.1075 39.1365L26.6018 37.1744C23.3422 38.116 19.8617 38.1578 16.5682 37.2997L16.2154 38.9602C15.9264 40.3192 14.6813 41.1959 13.4021 40.8712L10.0618 40.0224C8.79962 39.7023 8.01767 38.3201 8.3109 36.9471L8.86337 34.3543C9.03761 33.8255 9.15235 33.5194 9.2076 33.3709C6.07128 30.6065 4.12915 27.9858 4.12915 23.5468C4.12915 21.6544 4.49888 19.8037 5.23408 18.0457C5.26383 17.9715 5.34883 17.939 5.41682 17.9715C5.48482 18.004 5.51457 18.0921 5.48482 18.1709C4.77086 19.8871 4.40538 21.6961 4.40538 23.5468C4.40538 27.9023 6.33902 30.4719 9.46258 33.2086C9.51358 33.2503 9.53058 33.3246 9.50508 33.3895C9.50508 33.3895 9.37759 33.7003 9.1311 34.447L8.58288 37.0213C8.32365 38.232 9.01636 39.4519 10.1298 39.7348L13.4701 40.5836C14.5835 40.8666 15.6927 40.1151 15.9519 38.8953L16.3387 37.0863C16.3472 37.0445 16.3727 37.0121 16.4024 36.9935C16.4364 36.9703 16.4747 36.9657 16.5087 36.975C19.8362 37.8702 23.3677 37.8331 26.6698 36.8497C26.7463 36.8265 26.8185 36.8776 26.8398 36.9564L27.3838 39.0622C27.5325 39.642 27.881 40.1244 28.3612 40.4213C28.8414 40.7181 29.4024 40.7877 29.9336 40.6254L33.2357 39.6142C33.7669 39.4519 34.2088 39.0715 34.4808 38.5474C34.7486 38.0186 34.8166 37.411 34.6678 36.8312L34.0091 34.2661C33.9114 33.8904 33.7711 33.5286 33.5629 33.1297C33.5289 33.0694 33.5416 32.9906 33.5969 32.9396C35.6708 31.0378 37.0987 28.7047 37.8339 26.0005C37.8551 25.9356 37.9061 25.8939 37.9656 25.8939H38.6541C39.793 25.8939 40.7237 24.878 40.7237 23.635V19.5068C40.7237 18.2962 39.8143 17.3453 38.6541 17.3453L36.9287 17.3128C36.8777 17.3128 36.8352 17.2804 36.8097 17.234C35.9172 15.4668 34.6593 13.8804 33.0699 12.5121C33.0359 12.4843 33.0189 12.4425 33.0147 12.3962C33.0147 12.3683 33.0232 12.3451 33.0317 12.3266C33.3377 10.6475 33.8604 7.76241 33.9964 7.01563C30.7836 7.02026 28.119 9.14464 27.8767 9.34873C27.8045 9.43222 27.6855 9.40903 27.6472 9.30699C27.626 9.24669 27.643 9.16784 27.6897 9.12609C27.7195 9.1029 30.5583 6.71413 34.0091 6.71413C34.1026 6.71413 34.2131 6.6863 34.2726 6.77443C34.2981 6.8069 34.3066 6.85328 34.3023 6.89503C34.3023 6.89503 33.6691 10.3924 33.3164 12.3359C34.8761 13.6949 36.1212 15.2673 37.0179 17.0113L38.6583 17.0392C39.9715 17.0392 40.9999 18.1199 40.9999 19.4975V23.6257C40.9999 25.0358 39.9503 26.1861 38.6541 26.1861H38.0676C37.3197 28.8624 35.9002 31.177 33.8604 33.0787C34.0516 33.4591 34.1833 33.8069 34.2768 34.1734L34.9356 36.7384C35.1055 37.3971 35.029 38.0882 34.7231 38.6819C34.4171 39.2802 33.9156 39.7116 33.3122 39.8925L30.0101 40.9037C28.7564 41.2887 27.4688 40.4816 27.1203 39.1318L27.1075 39.1365Z"/><path stroke="#000" d="M32.9253 18.7418C32.4876 18.7418 32.0626 18.3243 31.8841 17.7213C31.6759 17.007 31.9011 16.2927 32.3813 16.1211C32.4493 16.0979 32.5216 16.084 32.5981 16.084C33.0315 16.084 33.4608 16.5014 33.635 17.1044C33.8432 17.8187 33.6222 18.5331 33.1378 18.7047C33.0698 18.7279 32.9975 18.7418 32.921 18.7418H32.9253ZM32.5981 16.3855C32.5513 16.3855 32.5088 16.3948 32.4663 16.4087C32.1306 16.5293 31.9861 17.0766 32.1476 17.6286C32.3048 18.1666 32.7256 18.5423 33.057 18.4171C33.3885 18.3011 33.5373 17.7399 33.3758 17.1972C33.2355 16.7287 32.9125 16.3855 32.5981 16.3855Z"/><path stroke="#000" d="M17.8176 13.2956H17.8091C17.1334 13.2956 16.4959 13.0498 16.0157 12.6138C15.527 12.1685 15.2592 11.5748 15.2635 10.944C15.2635 10.8605 15.323 10.7955 15.4037 10.7955C15.4802 10.7955 15.5397 10.8651 15.5397 10.944C15.5397 11.4867 15.7692 11.9969 16.1942 12.3819C16.6234 12.7761 17.1971 12.9895 17.8091 12.9941H17.8176C18.4253 12.9941 18.999 12.7808 19.4282 12.3911C19.8532 12.0062 20.0869 11.4959 20.0869 10.9532C20.0869 9.84931 19.339 9.18138 17.7921 8.90772C16.3472 8.6526 15.4845 7.9151 15.4845 6.92712C15.4845 6.38907 15.7352 5.88813 16.1814 5.51706C16.6191 5.15062 17.1971 4.95117 17.8091 4.95117H17.8176C18.4338 4.95117 19.0118 5.15526 19.4495 5.52169C19.8957 5.8974 20.1422 6.39835 20.1422 6.9364C20.1422 7.01989 20.0784 7.08483 20.0019 7.08483C19.9254 7.08483 19.866 7.01525 19.866 6.9364C19.866 6.49575 19.6577 6.0783 19.2795 5.75825C18.8885 5.42893 18.3658 5.25267 17.8133 5.25267H17.8048C17.2524 5.25267 16.7339 5.42893 16.3429 5.75825C15.9647 6.07366 15.7522 6.49112 15.7522 6.93176C15.7522 7.76203 16.5257 8.38822 17.8261 8.62014C19.5047 8.91235 20.3547 9.70088 20.3504 10.9625C20.3504 11.5933 20.0784 12.1871 19.5897 12.6323C19.1095 13.0683 18.4763 13.3095 17.8006 13.3095L17.8176 13.2956Z"/><path stroke="#000" d="M17.8263 5.25332C17.7498 5.25332 17.686 5.18374 17.686 5.10025V3.8015C17.686 3.71801 17.7498 3.64844 17.8263 3.64844C17.9028 3.64844 17.9623 3.71801 17.9623 3.8015V5.10025C17.9623 5.18374 17.8985 5.25332 17.822 5.25332H17.8263Z"/><path stroke="#000" d="M17.8091 14.599C17.7326 14.599 17.6731 14.5294 17.6731 14.446V13.1472C17.6731 13.0637 17.7368 12.9941 17.8133 12.9941C17.8898 12.9941 17.9536 13.0637 17.9536 13.1472V14.446C17.9493 14.5294 17.8898 14.599 17.8133 14.599H17.8091Z"/><path fill="#000" stroke="#000" d="M17.6051 17.2483C13.5933 17.123 10.3677 13.519 10.3762 9.11254C10.3805 4.63649 13.725 1 17.8218 1C21.9525 1.00928 25.2716 4.65041 25.2673 9.14037C25.2588 13.6535 21.8463 17.3689 17.6093 17.2483H17.6051ZM17.8303 1.3015C13.8695 1.3015 10.6567 4.80348 10.6482 9.11254C10.6397 13.352 13.7378 16.8169 17.5923 16.9468C21.6211 17.0813 24.9741 13.5422 24.9826 9.14037C24.9911 4.80812 21.7826 1.31077 17.826 1.3015H17.8303Z"/></svg>